<?xml version="1.0" standalone="no"?>
<!DOCTYPE svg PUBLIC "-//W3C//DTD SVG 1.1//EN" "http://www.w3.org/Graphics/SVG/1.1/DTD/svg11.dtd" >
<svg>
<metadata>
Created by FontForge 20090622 at Mon Apr  6 07:12:23 2015
 By deploy user
HamiSoft 2007
</metadata>
<defs>
<font id="DenmarkRegular" horiz-adv-x="357" >
  <font-face 
    font-family="1 Denmark Regular"
    font-weight="5"
    font-stretch="normal"
    units-per-em="1000"
    panose-1="0 0 0 0 0 0 0 0 0 0"
    ascent="800"
    descent="-200"
    x-height="518"
    cap-height="700"
    bbox="-71 -231 1280 953"
    underline-thickness="20"
    underline-position="-190"
    unicode-range="U+0020-U+F000"
  />
<missing-glyph horiz-adv-x="800" 
d="M50 0v800h700v-800h-700zM700 50v700h-600v-700h600z" />
    <glyph glyph-name=".notdef" horiz-adv-x="800" 
d="M50 0v800h700v-800h-700zM700 50v700h-600v-700h600z" />
    <glyph glyph-name=".null" unicode="&#xd7;" horiz-adv-x="0" 
 />
    <glyph glyph-name=".null" unicode="&#x141;" horiz-adv-x="0" 
 />
    <glyph glyph-name=".null" unicode="&#xfd;" horiz-adv-x="0" 
 />
    <glyph glyph-name="nonmarkingreturn" horiz-adv-x="393" 
 />
    <glyph glyph-name="space" unicode=" " horiz-adv-x="393" 
 />
    <glyph glyph-name="space" unicode="&#xa0;" horiz-adv-x="393" 
 />
    <glyph glyph-name="exclam" unicode="!" horiz-adv-x="250" 
d="M201 184h-141v516h141v-516zM201 -5h-143v125h143v-125z" />
    <glyph glyph-name="quotedbl" unicode="&#x22;" horiz-adv-x="353" 
d="M316 700l-1 -233h-104v233h105zM162 467h-105v233h105v-233z" />
    <glyph glyph-name="numbersign" unicode="#" horiz-adv-x="568" 
d="M531 492l-12 -58h-112l-36 -168h112l-13 -58h-111l-43 -201h-58l42 201h-93l-43 -201h-58l43 201h-112l13 58h111l36 168h-112l12 58h112l43 201h58l-43 -201h94l42 201h59l-43 -201h112zM349 434h-94l-35 -168h93z" />
    <glyph glyph-name="dollar" unicode="$" horiz-adv-x="767" 
d="M724 204q0 -100 -52.5 -153t-147.5 -53h-109v-68l-61 -1v69h-281v118h279v162h-100q-96 0 -154 46q-67 53 -67 157q0 98 51 151q63 66 203 66h62l1 70h61v-72h275l-1 -131h-274v-165h95q100 0 162 -60q58 -56 58 -136zM352 401v166h-50q-36 0 -62 -22t-26 -56
q0 -37 25.5 -62.5t62.5 -25.5h50zM535 198q0 33 -25.5 56.5t-58.5 23.5h-36v-161h39q32 0 56.5 22.5t24.5 58.5z" />
    <glyph glyph-name="percent" unicode="%" horiz-adv-x="963" 
d="M447 518q0 -95 -41 -147q-49 -63 -158 -63q-99 0 -153 52q-58 55 -58 163q0 91 59.5 145.5t144.5 54.5q100 0 153 -54t53 -151zM645 716l-286 -740h-67l293 740h60zM922 178q0 -99 -37 -144q-46 -57 -166 -57q-97 0 -155.5 55.5t-58.5 141.5q0 95 50 152q56 64 161 64
q108 0 160 -61q46 -54 46 -151zM352 515q0 62 -21 96q-28 44 -92 44q-53 0 -79.5 -40.5t-26.5 -96.5q0 -66 30 -103t85 -37q54 0 81 43q23 36 23 94zM823 184q0 61 -20 94q-26 42 -86 42q-61 0 -91 -45q-25 -37 -25 -93q0 -55 30.5 -94.5t84.5 -39.5q49 0 78 34t29 102z" />
    <glyph glyph-name="ampersand" unicode="&#x26;" horiz-adv-x="851" 
d="M797 286l-113 -2q-12 -127 -99 -207q-99 -91 -270 -91q-147 0 -213 58q-56 49 -56 139q0 53 22.5 91t69.5 68q-52 28 -75.5 73t-23.5 108q0 72 48.5 124.5t119.5 52.5h308v-128h-217q-33 0 -59 -21t-26 -51q0 -39 25 -67t62 -28h48v-120h-53q-33 0 -56 -21t-23 -57
q-4 -47 40 -71q32 -17 95 -24q63 -5 122.5 48.5t59.5 125.5l-105 -1v124h369v-123z" />
    <glyph glyph-name="quotesingle" unicode="'" horiz-adv-x="219" 
d="M162 467h-105v233h105v-233z" />
    <glyph glyph-name="parenleft" unicode="(" horiz-adv-x="351" 
d="M309 -66h-124q-67 87 -104 189q-41 113 -41 238q0 118 42 232q36 96 98 179h127q-63 -109 -88 -199.5t-25 -215.5q0 -129 25 -220.5t90 -202.5z" />
    <glyph glyph-name="parenright" unicode=")" horiz-adv-x="374" 
d="M324 366q0 -125 -40 -237q-36 -101 -104 -189h-125q65 111 90 203t25 220q0 127 -24 215t-88 200h126q62 -82 98 -179q42 -113 42 -233z" />
    <glyph glyph-name="asterisk" unicode="*" horiz-adv-x="269" 
d="M241 623l-58 -25l32 -45l-40 -30l-39 48l-39 -46l-40 30l34 45l-62 23l20 47l61 -20v56h53v-60l57 22z" />
    <glyph glyph-name="plus" unicode="+" horiz-adv-x="586" 
d="M555 263h-195v-193h-134v193h-195v132h195v200h135v-200h194v-132z" />
    <glyph glyph-name="comma" unicode="," horiz-adv-x="250" 
d="M196 125l-2 -94q0 -41 -26 -79q-12 -18 -22.5 -29.5t-27.5 -21.5v99h-57v125h135z" />
    <glyph glyph-name="hyphen" unicode="-" horiz-adv-x="454" 
d="M406 400l-1 -137h-360v137h361z" />
    <glyph glyph-name="period" unicode="." horiz-adv-x="250" 
d="M194 0h-141v127h141v-127z" />
    <glyph glyph-name="slash" unicode="/" horiz-adv-x="585" 
d="M536 716l-422 -728l-59 -1l423 729h58z" />
    <glyph glyph-name="zero" unicode="0" horiz-adv-x="831" 
d="M801 351q0 -204 -113 -292q-92 -71 -268 -71q-195 0 -288 82q-102 90 -102 289q0 163 91 254q99 99 296 99q217 0 306 -95q78 -84 78 -266zM623 355q0 103 -49 164q-55 68 -163 68q-106 0 -160 -73q-45 -61 -45 -159q0 -113 36 -167q50 -75 185 -75q114 0 160 73
q36 57 36 169z" />
    <glyph glyph-name="one" unicode="1" horiz-adv-x="276" 
d="M234 0h-188v700h188v-700z" />
    <glyph glyph-name="two" unicode="2" horiz-adv-x="847" 
d="M808 480q0 -98 -81 -148q-71 -44 -189 -44h-189q-30 0 -49 -6.5t-37 -25.5q-30 -32 -30 -70v-64h554v-122h-745v175q0 67 11 103q15 49 55.5 82.5t81 42t111.5 8.5h181q46 0 76 17q36 20 36 59q0 41 -34.5 64t-80.5 23h-426v126h530q114 0 173 -66q52 -58 52 -154z" />
    <glyph glyph-name="three" unicode="3" horiz-adv-x="702" 
d="M658 156q-12 -73 -71 -114.5t-139 -41.5h-403v122l350 1q34 0 59.5 21.5t28.5 55.5q0 38 -26 64t-65 26l-275 1l-3 122h269q43 0 70 22.5t27 63.5q0 77 -106 77h-331v124h407q100 0 156 -59q50 -53 50 -133q0 -56 -25 -92.5t-74 -62.5q50 -25 77 -68t27 -97q0 -15 -3 -32
z" />
    <glyph glyph-name="four" unicode="4" horiz-adv-x="837" 
d="M783 123h-99v-123h-160v122h-480v143l431 435h210v-453h98v-124zM522 242v311l-298 -311h298z" />
    <glyph glyph-name="five" unicode="5" horiz-adv-x="711" 
d="M672 220q0 -109 -87 -168q-76 -52 -191 -52h-340v130h349q39 0 67 27t24 67q0 30 -24 51q-28 24 -76 24h-340v401h577v-122h-414l-1 -156h245q93 0 152 -56t59 -146z" />
    <glyph glyph-name="six" unicode="6" horiz-adv-x="775" 
d="M744 190q-10 -113 -111 -165q-85 -44 -224 -44q-176 0 -267 69q-104 79 -104 249q0 158 70 268q84 133 241 133h351l2 -130h-285q-63 0 -83 -4q-40 -8 -69 -38q-20 -21 -32 -49t-12 -49l-3 -29h316q94 0 152.5 -54.5t58.5 -136.5q0 -13 -1 -20zM565 187q3 32 -16 60
q-23 34 -62 34h-269q0 -55 19.5 -94.5t62.5 -62.5t124 -23q61 0 97 18q44 22 44 68z" />
    <glyph glyph-name="seven" unicode="7" horiz-adv-x="726" 
d="M703 571l-474 -571h-201l488 574h-484v126h671v-129z" />
    <glyph glyph-name="eight" unicode="8" horiz-adv-x="780" 
d="M741 514q0 -63 -33 -109t-93 -66q57 -20 88 -63.5t31 -106.5q0 -79 -58.5 -124t-149.5 -45h-289q-85 0 -145 46q-64 49 -64 126q0 62 32.5 106.5t90.5 64.5q-60 20 -91.5 66.5t-31.5 110.5q0 78 63 129t149 51h275q97 0 161.5 -51t64.5 -135zM562 484q0 36 -22 64t-56 28
h-195q-34 0 -60 -26t-26 -58q0 -35 23 -62t56 -27h201q33 0 56 24t23 57zM562 197q0 37 -26 63t-64 26h-189q-32 0 -54.5 -23.5t-22.5 -56.5q0 -37 24.5 -62.5t59.5 -25.5h182q38 0 64 21.5t26 57.5z" />
    <glyph glyph-name="nine" unicode="9" horiz-adv-x="782" 
d="M744 402q0 -159 -70 -269q-84 -133 -241 -133h-355l2 129h284h23q46 0 69 6q33 9 60 36q21 21 32.5 49.5t11.5 49.5l4 29h-317q-95 0 -153 55t-58 138q0 13 1 19q10 113 110 166q85 45 223 45q173 0 262 -70q97 -77 112 -250zM564 421q0 55 -19.5 95t-61.5 61
q-20 10 -54 17t-72 7q-62 0 -97 -18q-44 -22 -44 -69q0 -32 18 -59q23 -34 61 -34h269z" />
    <glyph glyph-name="colon" unicode=":" horiz-adv-x="250" 
d="M197 306h-141v127h141v-127zM197 0h-141v127h141v-127z" />
    <glyph glyph-name="semicolon" unicode=";" horiz-adv-x="250" 
d="M199 312h-141v127h141v-127zM193 125l-2 -94q0 -45 -23 -79q-12 -18 -22.5 -29.5t-27.5 -21.5v99h-57v125h132z" />
    <glyph glyph-name="less" unicode="&#x3c;" horiz-adv-x="569" 
d="M532 -8l-495 211v88l495 210v-105l-354 -149l354 -150v-105z" />
    <glyph glyph-name="equal" unicode="=" horiz-adv-x="586" 
d="M554 359h-522v131h522v-131zM554 170h-522v132h522v-132z" />
    <glyph glyph-name="greater" unicode="&#x3e;" horiz-adv-x="569" 
d="M532 203l-495 -211v105l354 150l-354 149v105l495 -210v-88z" />
    <glyph glyph-name="question" unicode="?" horiz-adv-x="767" 
d="M735 489q0 -92 -70 -145q-65 -49 -168 -49h-159q-28 0 -47 -7.5t-37 -27.5q-13 -16 -18.5 -32.5t-5.5 -39.5v-18h-165v38q0 47 11.5 81t41.5 66q35 37 83 49q33 8 103 8h156q35 0 58 22t23 57q0 39 -28 67t-67 28h-400v114h487q85 0 143.5 -62.5t58.5 -148.5zM228 0h-161
v115h161v-115z" />
    <glyph glyph-name="at" unicode="@" horiz-adv-x="766" 
d="M710 350q-14 -74 -51 -126t-85 -71q-9 -4 -23.5 -7t-23.5 -3q-33 0 -55.5 18.5t-25.5 46.5v14q-8 -18 -19 -33q-35 -42 -82 -42q-23 0 -46 10q-78 35 -78 174l4 34q9 60 34.5 106t62.5 72q17 13 39.5 20t39.5 7q64 0 87 -58l8 50h49l-35 -204l-12 -81q-3 -21 -3 -34
q0 -17 4 -26q3 -13 13.5 -20.5t24.5 -7.5q4 0 14 3t21.5 12t29.5 29.5t32 53t22 73.5q4 25 4 54q0 108 -68.5 176.5t-175.5 68.5q-21 0 -45 -3q-108 -16 -178.5 -102.5t-70.5 -208.5v-17q2 -12 2 -18q0 -27 7 -50.5t21 -53.5q37 -81 104.5 -126t148.5 -45q55 0 111 22.5
t105 66.5q15 13 27 27q9 10 25 31l14 -49l-23 -28q-113 -120 -264 -120q-135 0 -231.5 88.5t-111.5 228.5q-1 11 -1.5 21t-0.5 24q0 105 46 187t133 133q33 18 65.5 29t63 14.5t53.5 3.5q130 0 215 -84t85 -213q0 -32 -6 -67zM467 467q-3 26 -20.5 42.5t-42.5 16.5
q-12 0 -26 -6q-26 -10 -43.5 -33t-34.5 -73q-2 -7 -5 -19.5t-6.5 -32t-5 -37t-1.5 -41.5q0 -44 15.5 -66.5t43.5 -26.5q30 -4 52.5 18.5t44.5 83.5q3 7 8.5 30t8.5 38l4 17l5 33q1 5 2 17.5t1 26.5v12z" />
    <glyph glyph-name="A" unicode="A" horiz-adv-x="701" 
d="M731 0h-175l-59 160h-289l-63 -160h-173l287 700h171zM443 282l-95 246l-92 -246h187z" />
    <glyph glyph-name="B" unicode="B" horiz-adv-x="726" 
d="M695 189q0 -79 -56 -134t-135 -55h-454v699h436q77 0 133.5 -45t64.5 -118q1 -6 1 -12v-12q0 -56 -27 -98.5t-81 -66.5q55 -20 86.5 -61t31.5 -97zM505 479q0 36 -22.5 62t-57.5 26h-221v-167l230 -1q31 0 51 23.5t20 56.5zM514 196q0 35 -22 60.5t-56 25.5h-236v-163
h241q32 0 52.5 22.5t20.5 54.5z" />
    <glyph glyph-name="C" unicode="C" horiz-adv-x="653" 
d="M620 0h-309q-47 0 -93 13q-89 27 -141 124q-47 88 -47 205q0 113 42 200q46 96 131 131q66 27 135 27h280v-134h-291q-71 0 -103 -77q-25 -60 -25 -157q0 -82 32 -139q37 -67 104 -67l285 1v-127z" />
    <glyph glyph-name="D" unicode="D" horiz-adv-x="738" 
d="M531 677q84 -32 133 -131q45 -91 45 -206q0 -123 -50 -214q-54 -100 -149 -119q-37 -7 -83 -7h-377v700h356q63 0 125 -23zM549 337q0 97 -29 159q-37 78 -112 78l-195 -1v-452l208 -1q68 0 101 71q27 58 27 146z" />
    <glyph glyph-name="E" unicode="E" horiz-adv-x="721" 
d="M686 0h-341q-79 0 -152 36q-79 39 -120.5 124t-41.5 187q0 101 40 183q44 89 122 130q43 22 82.5 31t90.5 9h316v-124h-292q-39 0 -65.5 -10.5t-52.5 -37.5t-36 -52.5t-10 -63.5h460v-124h-458q0 -34 9 -59.5t32.5 -52.5t49 -41t60.5 -14h307v-121z" />
    <glyph glyph-name="F" unicode="F" horiz-adv-x="738" 
d="M705 291h-483v-291h-172v430q0 40 15 88q29 87 108 130q94 52 305 52h227v-117h-237q-95 0 -134 -10q-66 -17 -95 -73q-21 -41 -21 -92h487v-117z" />
    <glyph glyph-name="G" unicode="G" horiz-adv-x="847" 
d="M784 0h-466q-127 0 -210 108q-78 102 -78 242q0 143 86 244q90 106 226 106h434v-129h-393q-78 0 -125 -68q-43 -62 -43 -151q0 -92 40 -158q46 -75 124 -75h235v177h-240v116h410v-412z" />
    <glyph glyph-name="H" unicode="H" horiz-adv-x="762" 
d="M711 0h-175v284h-318v-284h-168v700h168v-290h320v290h173v-700z" />
    <glyph glyph-name="I" unicode="I" horiz-adv-x="288" 
d="M237 0h-187v700h187v-700z" />
    <glyph glyph-name="J" unicode="J" horiz-adv-x="636" 
d="M585 256q0 -40 -4.5 -64.5t-19.5 -55.5q-36 -78 -122 -110q-69 -26 -179 -26h-252v114h224q52 0 79 8q37 11 62 43q18 22 25 44.5t7 52.5v438h180v-444z" />
    <glyph glyph-name="K" unicode="K" horiz-adv-x="711" 
d="M703 700l-311 -345l301 -355h-217l-266 356l276 344h217zM205 0h-155v700h155v-700z" />
    <glyph glyph-name="L" unicode="L" horiz-adv-x="664" 
d="M628 0h-253q-111 0 -178 25q-85 32 -122 110q-14 30 -19.5 57.5t-5.5 63.5v444h180v-438q0 -30 7 -52.5t25 -44.5q25 -32 58 -42t84 -10h224v-113z" />
    <glyph glyph-name="M" unicode="M" horiz-adv-x="981" 
d="M929 0h-151v535l-198 -535h-180l-204 547v-547h-146v700h234l205 -554l197 554h243v-700z" />
    <glyph glyph-name="N" unicode="N" horiz-adv-x="828" 
d="M777 0h-222l-338 518v-518h-167v700h225l332 -525v525h170v-700z" />
    <glyph glyph-name="O" unicode="O" horiz-adv-x="831" 
d="M801 351q0 -204 -113 -292q-92 -71 -268 -71q-195 0 -288 82q-102 90 -102 289q0 163 91 254q99 99 296 99q217 0 306 -95q78 -84 78 -266zM623 355q0 103 -49 164q-55 68 -163 68q-106 0 -160 -73q-45 -61 -45 -159q0 -113 36 -167q50 -75 185 -75q114 0 160 73
q36 57 36 169z" />
    <glyph glyph-name="P" unicode="P" horiz-adv-x="792" 
d="M762 468q0 -93 -71.5 -158.5t-170.5 -65.5h-297v-244h-173v700h479q112 0 177 -77q56 -67 56 -155zM567 477q0 45 -37 75t-85 30h-223v-217h228q49 0 83 32t34 80z" />
    <glyph glyph-name="Q" unicode="Q" horiz-adv-x="819" 
d="M840 -3h-198l-29 36q-57 -23 -102 -34t-98 -11q-180 0 -279 87q-104 92 -104 270q0 181 95 274t290 93q189 0 288 -100q85 -86 85 -223q0 -99 -9 -145q-14 -70 -59 -133zM615 351q0 96 -40 156q-52 77 -162 77q-104 0 -155.5 -59t-51.5 -170q0 -125 60 -183
q54 -52 160 -52q96 0 142.5 58.5t46.5 172.5z" />
    <glyph glyph-name="R" unicode="R" horiz-adv-x="768" 
d="M784 0h-197l-181 273h-188v-273h-168v700h512q87 0 144 -67.5t57 -159.5q0 -73 -49 -124t-124 -64zM561 480q0 49 -36.5 75.5t-98.5 26.5h-210v-196h215q47 0 84 21q46 26 46 73z" />
    <glyph glyph-name="S" unicode="S" horiz-adv-x="816" 
d="M787 217q0 -92 -61 -155t-155 -63l-495 1v126h408q41 0 69 19q32 22 32 60q0 89 -126 89h-206q-89 0 -156 55t-67 140q0 94 65.5 152.5t172.5 58.5h473v-120h-417q-28 0 -56.5 -23.5t-28.5 -55.5q0 -36 27.5 -60.5t66.5 -24.5h227q106 0 166.5 -54.5t60.5 -144.5z" />
    <glyph glyph-name="T" unicode="T" horiz-adv-x="677" 
d="M676 579h-261v-581h-162v581h-257v119h680v-119z" />
    <glyph glyph-name="U" unicode="U" horiz-adv-x="801" 
d="M749 237q0 -138 -110 -195q-82 -42 -235 -42q-149 0 -239 49q-115 62 -115 195v456h177v-434q0 -82 59 -119q43 -27 107 -27q109 0 150 43q35 37 35 109v428h171v-463z" />
    <glyph glyph-name="V" unicode="V" horiz-adv-x="780" 
d="M806 700l-336 -702h-175l-327 702h191l227 -533l229 533h191z" />
    <glyph glyph-name="W" unicode="W" horiz-adv-x="1130" 
d="M1169 700l-243 -701h-213l-155 495l-150 -494h-206l-241 700h191l156 -523l154 523h199l165 -530l150 530h193z" />
    <glyph glyph-name="X" unicode="X" horiz-adv-x="870" 
d="M811 0h-204l-179 234l-166 -236h-209l273 349l-267 353h210l160 -233l171 233h204l-269 -350z" />
    <glyph glyph-name="Y" unicode="Y" horiz-adv-x="703" 
d="M735 700l-308 -405v-297h-165v297l-304 405h203l182 -279l185 279h207z" />
    <glyph glyph-name="Z" unicode="Z" horiz-adv-x="814" 
d="M762 -2h-710v122l471 444h-476v135l713 1v-143l-466 -439h468v-120z" />
    <glyph glyph-name="bracketleft" unicode="[" horiz-adv-x="325" 
d="M301 -191h-240v895h240v-94h-121v-707h121v-94z" />
    <glyph glyph-name="backslash" unicode="\" horiz-adv-x="271" 
d="M303 -19h-114l-221 738h114z" />
    <glyph glyph-name="bracketright" unicode="]" horiz-adv-x="325" 
d="M263 -191h-240v94h121v707h-121v94h240v-895z" />
    <glyph glyph-name="asciicircum" unicode="^" horiz-adv-x="569" 
d="M509 315h-107l-117 256l-118 -256h-107l176 366h97z" />
    <glyph glyph-name="underscore" unicode="_" horiz-adv-x="542" 
d="M539 -200h-542v49h542v-49z" />
    <glyph glyph-name="grave" unicode="`" 
d="M241 552h-108l-157 146h165z" />
    <glyph glyph-name="a" unicode="a" horiz-adv-x="606" 
d="M556 -1h-374q-63 0 -107.5 42.5t-44.5 107.5q0 68 40.5 112.5t101.5 44.5h242v28q0 13 -4.5 22.5t-14.5 22.5q-14 16 -29 20.5t-42 4.5h-259v114h222h43q73 0 109 -12.5t62 -37.5q33 -33 44 -72t11 -100v-297zM413 105v102h-176q-25 0 -42.5 -14.5t-17.5 -38.5
q0 -21 17 -35t39 -14h180z" />
    <glyph glyph-name="b" unicode="b" horiz-adv-x="618" 
d="M588 264q0 -105 -56 -181q-61 -83 -157 -83h-325v700h140v-182h187q93 0 154 -79q57 -74 57 -175zM442 259q0 59 -35 104.5t-89 45.5h-128v-297h135q52 0 84.5 44.5t32.5 102.5z" />
    <glyph glyph-name="c" unicode="c" horiz-adv-x="544" 
d="M508 0h-218q-121 0 -190.5 70.5t-69.5 185.5q0 111 66 184q71 78 195 78h217v-120h-197q-55 0 -94 -44t-39 -101q0 -58 37 -100t92 -42h201v-111z" />
    <glyph glyph-name="d" unicode="d" horiz-adv-x="618" 
d="M568 0h-325q-94 0 -156 84q-57 78 -57 183q0 101 64 176t160 75h179v182h135v-700zM429 113v295h-129q-54 0 -89 -43t-35 -102t32 -104.5t86 -45.5h135z" />
    <glyph glyph-name="e" unicode="e" horiz-adv-x="542" 
d="M494 -3h-244q-89 0 -154.5 76.5t-65.5 176.5q0 109 71.5 188.5t159.5 79.5h232v-107h-170q-32 0 -54.5 -5.5t-41.5 -21.5q-35 -30 -35 -81h300v-108h-299q0 -24 5.5 -40.5t22.5 -33t40.5 -22t57.5 -5.5h175v-97z" />
    <glyph glyph-name="f" unicode="f" horiz-adv-x="438" 
d="M419 593h-62q-23 0 -42 -2.5t-26 -13.5t-9.5 -21t-2.5 -25v-27h140v-104h-140v-400h-147v398h-99v107h100v62q0 52 34 90q21 24 45.5 33.5t60.5 9.5h148v-107z" />
    <glyph glyph-name="g" unicode="g" horiz-adv-x="628" 
d="M578 17q0 -53 -9 -86t-39 -65.5t-64 -44t-85 -11.5h-298v110h251h19q17 0 27 2.5t22 11.5q8 5 18 18t10 22v24h-181q-95 0 -159 82q-60 77 -60 180q0 105 65.5 181.5t165.5 76.5h317v-501zM432 111l-1 289h-123q-55 0 -85 -43.5t-30 -110.5q0 -51 27 -88q35 -47 102 -47
h110z" />
    <glyph glyph-name="h" unicode="h" horiz-adv-x="588" 
d="M537 341l-1 -341h-141v313q0 14 -1 33t-16 34t-30.5 19.5t-38.5 4.5l-119 2v-406h-140v700h140v-182h173q43 0 69 -7.5t54.5 -33t39.5 -57.5t11 -79z" />
    <glyph glyph-name="i" unicode="i" horiz-adv-x="240" 
d="M188 577h-138v123h138v-123zM190 0h-140v518h140v-518z" />
    <glyph glyph-name="j" unicode="j" horiz-adv-x="240" 
d="M188 582h-136v117h136v-117zM190 -13q0 -80 -67 -136q-25 -21 -46 -30t-51 -9h-97v107h57q25 0 44 19q13 11 16.5 24.5t3.5 37.5v518h140v-531z" />
    <glyph glyph-name="k" unicode="k" horiz-adv-x="594" 
d="M190 0h-140v700h140v-700zM609 0h-197l-215 252l216 268h195l-234 -263z" />
    <glyph glyph-name="l" unicode="l" horiz-adv-x="240" 
d="M190 0h-140v700h140v-700z" />
    <glyph glyph-name="m" unicode="m" horiz-adv-x="846" 
d="M794 -1h-135v325q0 19 -4 30t-16 23.5t-24 18t-28 5.5h-99v-402h-137v405h-161v-404h-140v518h555q52 0 82 -9.5t59 -40.5q23 -25 35.5 -49t12.5 -52v-368z" />
    <glyph glyph-name="n" unicode="n" horiz-adv-x="585" 
d="M533 0h-139v341q0 13 -6 23.5t-17 20.5q-20 17 -46 17h-136v-402h-139v518h266q71 0 103 -8q50 -12 80 -53q34 -48 34 -105v-352z" />
    <glyph glyph-name="o" unicode="o" horiz-adv-x="659" 
d="M629 261q0 -135 -86 -207q-79 -66 -215 -66t-211 60q-87 69 -87 215q0 122 94 192q84 63 207 63q135 0 216.5 -67.5t81.5 -189.5zM474 262q0 63 -39.5 105.5t-107.5 42.5q-62 0 -102.5 -43.5t-40.5 -109.5q0 -76 41 -121t106 -45q74 0 110 47q33 43 33 124z" />
    <glyph glyph-name="p" unicode="p" horiz-adv-x="605" 
d="M575 271q0 -124 -64.5 -197.5t-169.5 -73.5h-151v-189h-140v707h278q118 0 184 -70q63 -67 63 -177zM433 263q0 65 -41.5 106.5t-103.5 41.5h-98v-302h108q60 0 97.5 42.5t37.5 111.5z" />
    <glyph glyph-name="q" unicode="q" horiz-adv-x="605" 
d="M555 -185h-135v185h-156q-105 0 -169.5 75.5t-64.5 200.5q0 108 62 173q66 69 185 69h278v-703zM419 114v297h-101q-62 0 -104 -39t-42 -105q0 -69 38 -111t98 -42h111z" />
    <glyph glyph-name="r" unicode="r" horiz-adv-x="366" 
d="M343 406h-155v-406h-138v518h139v-72q11 27 27 44t42 26q12 4 25.5 7t27.5 3q17 0 32 -4v-116z" />
    <glyph glyph-name="s" unicode="s" horiz-adv-x="562" 
d="M532 158q0 -66 -42.5 -113t-107.5 -47h-343v94h282q30 0 50.5 15t20.5 43q0 65 -88 65h-144q-46 0 -89 44t-43 95q0 72 32 116q37 50 109 50h330v-98h-294q-17 0 -29.5 -16.5t-12.5 -37.5q0 -23 16.5 -39.5t39.5 -16.5h155q73 0 115.5 -43.5t42.5 -110.5z" />
    <glyph glyph-name="t" unicode="t" horiz-adv-x="381" 
d="M358 410h-135v-235q0 -32 22 -53q25 -21 66 -21h41v-101h-129q-58 0 -99 42q-24 25 -31 55t-7 71v242h-88v108h88v182h137v-182h135v-108z" />
    <glyph glyph-name="u" unicode="u" horiz-adv-x="583" 
d="M533 0h-266q-73 0 -103 7q-50 12 -80 52q-34 46 -34 105v354h139v-343q0 -25 22 -43t47 -18h136v404h139v-518z" />
    <glyph glyph-name="v" unicode="v" horiz-adv-x="550" 
d="M576 518l-224 -518h-172l-213 518h165l138 -362l143 362h163z" />
    <glyph glyph-name="w" unicode="w" horiz-adv-x="839" 
d="M867 518l-171 -519h-178l-98 344l-102 -343h-176l-177 518h161l106 -355l106 355h164l101 -368l103 368h161z" />
    <glyph glyph-name="x" unicode="x" horiz-adv-x="543" 
d="M558 518l-199 -262l193 -258h-179l-100 138l-105 -136h-175l196 253l-198 265h175l108 -149l106 149h178z" />
    <glyph glyph-name="y" unicode="y" horiz-adv-x="599" 
d="M546 518l-1 -540q0 -34 -14 -61.5t-37 -48.5q-35 -30 -72 -41t-89 -11h-272v108h283q19 0 36 13q23 18 23 42v20h-160q-46 0 -78 10.5t-62 40.5q-53 52 -53 129v339h146l-1 -332q0 -20 2.5 -30t14 -22t26.5 -16.5t37 -4.5h127v405h144z" />
    <glyph glyph-name="z" unicode="z" horiz-adv-x="594" 
d="M548 406l-295 -297h290v-109h-498v107l296 301h-296v110h503v-112z" />
    <glyph glyph-name="braceleft" unicode="{" horiz-adv-x="379" 
d="M356 -191h-81q-52 0 -91 32q-46 38 -46 101v195q0 40 -35 60q-26 15 -56 15v89q30 0 55 14q36 20 36 60v195q0 64 45 101q40 33 92 33h81v-86h-44q-33 0 -46 -21q-9 -15 -9 -43v-191q-6 -54 -47 -83q-28 -20 -64 -23q48 -3 80 -36q26 -27 31 -71v-191q0 -30 8 -43
q13 -21 47 -21h44v-86z" />
    <glyph glyph-name="bar" unicode="|" horiz-adv-x="273" 
d="M191 -19h-109v738h109v-738z" />
    <glyph glyph-name="braceright" unicode="}" horiz-adv-x="379" 
d="M332 212q-30 0 -55 -14q-36 -20 -36 -61v-195q0 -63 -45 -100q-40 -33 -92 -33h-81v86h44q33 0 46 21q9 15 9 43v191q7 55 47 83q32 22 64 22q-38 6 -63 24q-41 29 -48 84v191q0 30 -8 43q-13 21 -47 21h-44v86h81q53 0 92 -32q45 -37 45 -102v-195q0 -39 35 -59
q26 -15 56 -15v-89z" />
    <glyph glyph-name="asciitilde" unicode="~" horiz-adv-x="569" 
d="M510 247q-28 -40 -49 -57q-33 -27 -73 -27q-25 0 -47.5 7.5t-51.5 24t-51 24.5q-31 11 -62 11q-29 0 -50 -22q-17 -18 -31 -49l-36 88q20 37 44 57q33 27 78 27q24 0 53 -9q19 -6 56 -23q27 -13 40 -18q41 -18 59 -18q30 0 58 33q11 14 28 38z" />
    <glyph glyph-name="Adieresis" unicode="&#xc4;" horiz-adv-x="701" 
d="M731 0h-175l-59 160h-289l-63 -160h-173l287 700h171zM443 282l-95 246l-92 -246h187zM513 736h-135v115h135v-115zM304 736h-135v115h135v-115z" />
    <glyph glyph-name="Aring" unicode="&#xc5;" horiz-adv-x="701" 
d="M731 0h-175l-59 160h-289l-63 -160h-173l283 689q-25 28 -25 64q0 45 36 75t79 30q44 0 80 -29.5t36 -75.5q0 -37 -26 -65zM401 753q0 21 -16.5 36.5t-39.5 15.5q-24 0 -40 -15t-16 -37t16.5 -37.5t39.5 -15.5q24 0 40 15t16 38zM443 282l-95 246l-92 -246h187z" />
    <glyph glyph-name="Ccedilla" unicode="&#xc7;" horiz-adv-x="653" 
d="M620 0h-257l-19 -26q8 0 18.5 2.5t13.5 2.5q31 0 58 -17q36 -23 36 -65t-37 -69t-96 -27q-30 0 -54.5 5t-68.5 20l23 48q26 -7 46.5 -11.5t35.5 -4.5q19 0 35 10.5t16 28.5t-12 27t-30 9t-43 -7l-22 20l37 54q-36 0 -82 13q-89 27 -141 124q-47 88 -47 205q0 113 42 200
q46 96 131 131q66 27 135 27h280v-134h-291q-71 0 -103 -77q-25 -60 -25 -157q0 -82 32 -139q37 -67 104 -67l285 1v-127z" />
    <glyph glyph-name="Eacute" unicode="&#xc9;" horiz-adv-x="721" 
d="M686 0h-341q-79 0 -152 36q-79 39 -120.5 124t-41.5 187q0 101 40 183q44 89 122 130q43 22 82.5 31t90.5 9h316v-124h-292q-39 0 -65.5 -10.5t-52.5 -37.5t-36 -52.5t-10 -63.5h460v-124h-458q0 -34 9 -59.5t32.5 -52.5t49 -41t60.5 -14h307v-121zM556 875l-158 -146
h-109l102 146h165z" />
    <glyph glyph-name="Ntilde" unicode="&#xd1;" horiz-adv-x="828" 
d="M777 0h-222l-338 518v-518h-167v700h225l332 -525v525h170v-700zM616 866q-10 -69 -41 -106t-76 -37q-31 0 -73 14.5l-84 30.5q-18 0 -32 -13t-18 -34h-70l10 42q9 31 22 51q17 24 40 38t58 14q15 0 70.5 -22.5t73.5 -22.5q23 0 37 15q9 10 14 30h69z" />
    <glyph glyph-name="Odieresis" unicode="&#xd6;" horiz-adv-x="831" 
d="M801 351q0 -204 -113 -292q-92 -71 -268 -71q-195 0 -288 82q-102 90 -102 289q0 163 91 254q99 99 296 99q217 0 306 -95q78 -84 78 -266zM623 355q0 103 -49 164q-55 68 -163 68q-106 0 -160 -73q-45 -61 -45 -159q0 -113 36 -167q50 -75 185 -75q114 0 160 73
q36 57 36 169zM585 736h-135v115h135v-115zM376 736h-135v115h135v-115z" />
    <glyph glyph-name="Udieresis" unicode="&#xdc;" horiz-adv-x="801" 
d="M749 237q0 -138 -110 -195q-82 -42 -235 -42q-149 0 -239 49q-115 62 -115 195v456h177v-434q0 -82 59 -119q43 -27 107 -27q109 0 150 43q35 37 35 109v428h171v-463zM579 736h-135v115h135v-115zM370 736h-135v115h135v-115z" />
    <glyph glyph-name="aacute" unicode="&#xe1;" horiz-adv-x="606" 
d="M556 -1h-374q-63 0 -107.5 42.5t-44.5 107.5q0 68 40.5 112.5t101.5 44.5h242v28q0 13 -4.5 22.5t-14.5 22.5q-14 16 -29 20.5t-42 4.5h-259v114h222h43q73 0 109 -12.5t62 -37.5q33 -33 44 -72t11 -100v-297zM413 105v102h-176q-25 0 -42.5 -14.5t-17.5 -38.5
q0 -21 17 -35t39 -14h180zM439 698l-158 -146h-109l102 146h165z" />
    <glyph glyph-name="agrave" unicode="&#xe0;" horiz-adv-x="606" 
d="M556 -1h-374q-63 0 -107.5 42.5t-44.5 107.5q0 68 40.5 112.5t101.5 44.5h242v28q0 13 -4.5 22.5t-14.5 22.5q-14 16 -29 20.5t-42 4.5h-259v114h222h43q73 0 109 -12.5t62 -37.5q33 -33 44 -72t11 -100v-297zM413 105v102h-176q-25 0 -42.5 -14.5t-17.5 -38.5
q0 -21 17 -35t39 -14h180zM409 552h-108l-157 146h165z" />
    <glyph glyph-name="acircumflex" unicode="&#xe2;" horiz-adv-x="606" 
d="M556 -1h-374q-63 0 -107.5 42.5t-44.5 107.5q0 68 40.5 112.5t101.5 44.5h242v28q0 13 -4.5 22.5t-14.5 22.5q-14 16 -29 20.5t-42 4.5h-259v114h222h43q73 0 109 -12.5t62 -37.5q33 -33 44 -72t11 -100v-297zM413 105v102h-176q-25 0 -42.5 -14.5t-17.5 -38.5
q0 -21 17 -35t39 -14h180zM482 552h-121l-68 82l-68 -82h-121l122 146h134z" />
    <glyph glyph-name="adieresis" unicode="&#xe4;" horiz-adv-x="606" 
d="M556 -1h-374q-63 0 -107.5 42.5t-44.5 107.5q0 68 40.5 112.5t101.5 44.5h242v28q0 13 -4.5 22.5t-14.5 22.5q-14 16 -29 20.5t-42 4.5h-259v114h222h43q73 0 109 -12.5t62 -37.5q33 -33 44 -72t11 -100v-297zM413 105v102h-176q-25 0 -42.5 -14.5t-17.5 -38.5
q0 -21 17 -35t39 -14h180zM468 562h-135v115h135v-115zM259 562h-135v115h135v-115z" />
    <glyph glyph-name="atilde" unicode="&#xe3;" horiz-adv-x="606" 
d="M556 -1h-374q-63 0 -107.5 42.5t-44.5 107.5q0 68 40.5 112.5t101.5 44.5h242v28q0 13 -4.5 22.5t-14.5 22.5q-14 16 -29 20.5t-42 4.5h-259v114h222h43q73 0 109 -12.5t62 -37.5q33 -33 44 -72t11 -100v-297zM413 105v102h-176q-25 0 -42.5 -14.5t-17.5 -38.5
q0 -21 17 -35t39 -14h180zM487 707q-10 -69 -41 -106t-76 -37q-31 0 -73 14.5l-84 30.5q-18 0 -32 -13t-18 -34h-70l10 42q9 31 22 51q17 24 40 38t58 14q15 0 70.5 -22.5t73.5 -22.5q23 0 37 15q9 10 14 30h69z" />
    <glyph glyph-name="aring" unicode="&#xe5;" horiz-adv-x="606" 
d="M556 -1h-374q-63 0 -107.5 42.5t-44.5 107.5q0 68 40.5 112.5t101.5 44.5h242v28q0 13 -4.5 22.5t-14.5 22.5q-14 16 -29 20.5t-42 4.5h-259v114h161q-18 14 -28.5 33.5t-10.5 43.5q0 45 36 75t79 30q44 0 80 -29.5t36 -75.5q0 -25 -10.5 -44t-30.5 -35q36 0 67.5 -11.5
t56.5 -36.5q33 -33 44 -72t11 -100v-297zM358 595q0 21 -16.5 36.5t-39.5 15.5q-24 0 -40 -15t-16 -37t16.5 -37.5t39.5 -15.5q24 0 40 15t16 38zM413 105v102h-176q-25 0 -42.5 -14.5t-17.5 -38.5q0 -21 17 -35t39 -14h180z" />
    <glyph glyph-name="ccedilla" unicode="&#xe7;" horiz-adv-x="544" 
d="M508 0h-181l-19 -26q8 0 18.5 2.5t13.5 2.5q33 0 58 -15q36 -21 36 -64t-38 -71t-95 -28q-30 0 -54.5 5t-68.5 20l23 48q26 -7 46.5 -11.5t35.5 -4.5q19 0 35 10.5t16 28.5t-12 27t-30 9t-43 -7l-22 20l38 55q-109 0 -172 71.5t-63 183.5q0 111 66 184q71 78 195 78h217
v-120h-197q-55 0 -94 -44t-39 -101q0 -58 37 -100t92 -42h201v-111z" />
    <glyph glyph-name="eacute" unicode="&#xe9;" horiz-adv-x="542" 
d="M494 -3h-244q-89 0 -154.5 76.5t-65.5 176.5q0 109 71.5 188.5t159.5 79.5h232v-107h-170q-32 0 -54.5 -5.5t-41.5 -21.5q-35 -30 -35 -81h300v-108h-299q0 -24 5.5 -40.5t22.5 -33t40.5 -22t57.5 -5.5h175v-97zM445 698l-158 -146h-109l102 146h165z" />
    <glyph glyph-name="egrave" unicode="&#xe8;" horiz-adv-x="542" 
d="M494 -3h-244q-89 0 -154.5 76.5t-65.5 176.5q0 109 71.5 188.5t159.5 79.5h232v-107h-170q-32 0 -54.5 -5.5t-41.5 -21.5q-35 -30 -35 -81h300v-108h-299q0 -24 5.5 -40.5t22.5 -33t40.5 -22t57.5 -5.5h175v-97zM433 552h-108l-157 146h165z" />
    <glyph glyph-name="ecircumflex" unicode="&#xea;" horiz-adv-x="542" 
d="M494 -3h-244q-89 0 -154.5 76.5t-65.5 176.5q0 109 71.5 188.5t159.5 79.5h232v-107h-170q-32 0 -54.5 -5.5t-41.5 -21.5q-35 -30 -35 -81h300v-108h-299q0 -24 5.5 -40.5t22.5 -33t40.5 -22t57.5 -5.5h175v-97zM482 552h-121l-68 82l-68 -82h-121l122 146h134z" />
    <glyph glyph-name="edieresis" unicode="&#xeb;" horiz-adv-x="542" 
d="M494 -3h-244q-89 0 -154.5 76.5t-65.5 176.5q0 109 71.5 188.5t159.5 79.5h232v-107h-170q-32 0 -54.5 -5.5t-41.5 -21.5q-35 -30 -35 -81h300v-108h-299q0 -24 5.5 -40.5t22.5 -33t40.5 -22t57.5 -5.5h175v-97zM474 562h-135v115h135v-115zM265 562h-135v115h135v-115z
" />
    <glyph glyph-name="iacute" unicode="&#xed;" horiz-adv-x="240" 
d="M190 0h-140v518h140v-518zM253 698l-158 -146h-109l102 146h165z" />
    <glyph glyph-name="igrave" unicode="&#xec;" horiz-adv-x="240" 
d="M190 0h-140v518h140v-518zM250 552h-108l-157 146h165z" />
    <glyph glyph-name="icircumflex" unicode="&#xee;" horiz-adv-x="240" 
d="M190 0h-140v518h140v-518zM311 552h-121l-68 82l-68 -82h-121l122 146h134z" />
    <glyph glyph-name="idieresis" unicode="&#xef;" horiz-adv-x="240" 
d="M190 0h-140v518h140v-518zM297 562h-135v115h135v-115zM88 562h-135v115h135v-115z" />
    <glyph glyph-name="ntilde" unicode="&#xf1;" horiz-adv-x="585" 
d="M533 0h-139v341q0 13 -6 23.5t-17 20.5q-20 17 -46 17h-136v-402h-139v518h266q71 0 103 -8q50 -12 80 -53q34 -48 34 -105v-352zM460 707q-10 -69 -41 -106t-76 -37q-31 0 -73 14.5l-84 30.5q-18 0 -32 -13t-18 -34h-70l10 42q9 31 22 51q17 24 40 38t58 14
q15 0 70.5 -22.5t73.5 -22.5q23 0 37 15q9 10 14 30h69z" />
    <glyph glyph-name="oacute" unicode="&#xf3;" horiz-adv-x="659" 
d="M629 261q0 -135 -86 -207q-79 -66 -215 -66t-211 60q-87 69 -87 215q0 122 94 192q84 63 207 63q135 0 216.5 -67.5t81.5 -189.5zM474 262q0 63 -39.5 105.5t-107.5 42.5q-62 0 -102.5 -43.5t-40.5 -109.5q0 -76 41 -121t106 -45q74 0 110 47q33 43 33 124zM460 698
l-158 -146h-109l102 146h165z" />
    <glyph glyph-name="ograve" unicode="&#xf2;" horiz-adv-x="659" 
d="M629 261q0 -135 -86 -207q-79 -66 -215 -66t-211 60q-87 69 -87 215q0 122 94 192q84 63 207 63q135 0 216.5 -67.5t81.5 -189.5zM474 262q0 63 -39.5 105.5t-107.5 42.5q-62 0 -102.5 -43.5t-40.5 -109.5q0 -76 41 -121t106 -45q74 0 110 47q33 43 33 124zM457 552h-108
l-157 146h165z" />
    <glyph glyph-name="ocircumflex" unicode="&#xf4;" horiz-adv-x="659" 
d="M629 261q0 -135 -86 -207q-79 -66 -215 -66t-211 60q-87 69 -87 215q0 122 94 192q84 63 207 63q135 0 216.5 -67.5t81.5 -189.5zM474 262q0 63 -39.5 105.5t-107.5 42.5q-62 0 -102.5 -43.5t-40.5 -109.5q0 -76 41 -121t106 -45q74 0 110 47q33 43 33 124zM515 552h-121
l-68 82l-68 -82h-121l122 146h134z" />
    <glyph glyph-name="odieresis" unicode="&#xf6;" horiz-adv-x="659" 
d="M629 261q0 -135 -86 -207q-79 -66 -215 -66t-211 60q-87 69 -87 215q0 122 94 192q84 63 207 63q135 0 216.5 -67.5t81.5 -189.5zM474 262q0 63 -39.5 105.5t-107.5 42.5q-62 0 -102.5 -43.5t-40.5 -109.5q0 -76 41 -121t106 -45q74 0 110 47q33 43 33 124zM501 562h-135
v115h135v-115zM292 562h-135v115h135v-115z" />
    <glyph glyph-name="otilde" unicode="&#xf5;" horiz-adv-x="659" 
d="M629 261q0 -135 -86 -207q-79 -66 -215 -66t-211 60q-87 69 -87 215q0 122 94 192q84 63 207 63q135 0 216.5 -67.5t81.5 -189.5zM474 262q0 63 -39.5 105.5t-107.5 42.5q-62 0 -102.5 -43.5t-40.5 -109.5q0 -76 41 -121t106 -45q74 0 110 47q33 43 33 124zM520 707
q-10 -69 -41 -106t-76 -37q-31 0 -73 14.5l-84 30.5q-18 0 -32 -13t-18 -34h-70l10 42q9 31 22 51q17 24 40 38t58 14q15 0 70.5 -22.5t73.5 -22.5q23 0 37 15q9 10 14 30h69z" />
    <glyph glyph-name="uacute" unicode="&#xfa;" horiz-adv-x="583" 
d="M533 0h-266q-73 0 -103 7q-50 12 -80 52q-34 46 -34 105v354h139v-343q0 -25 22 -43t47 -18h136v404h139v-518zM442 698l-158 -146h-109l102 146h165z" />
    <glyph glyph-name="ugrave" unicode="&#xf9;" horiz-adv-x="583" 
d="M533 0h-266q-73 0 -103 7q-50 12 -80 52q-34 46 -34 105v354h139v-343q0 -25 22 -43t47 -18h136v404h139v-518zM406 552h-108l-157 146h165z" />
    <glyph glyph-name="ucircumflex" unicode="&#xfb;" horiz-adv-x="583" 
d="M533 0h-266q-73 0 -103 7q-50 12 -80 52q-34 46 -34 105v354h139v-343q0 -25 22 -43t47 -18h136v404h139v-518zM482 552h-121l-68 82l-68 -82h-121l122 146h134z" />
    <glyph glyph-name="udieresis" unicode="&#xfc;" horiz-adv-x="583" 
d="M533 0h-266q-73 0 -103 7q-50 12 -80 52q-34 46 -34 105v354h139v-343q0 -25 22 -43t47 -18h136v404h139v-518zM474 562h-135v115h135v-115zM265 562h-135v115h135v-115z" />
    <glyph glyph-name="degree" unicode="&#xb0;" horiz-adv-x="416" 
d="M365 556q0 -64 -46 -110t-111 -46q-63 0 -110 46t-47 110q0 63 43.5 109.5t105.5 46.5h7q66 0 112 -45t46 -111zM322 556q0 48 -34 81t-82 33h-6q-45 0 -75 -33.5t-30 -80.5q0 -48 33 -81t80 -33t80.5 33.5t33.5 80.5z" />
    <glyph glyph-name="cent" unicode="&#xa2;" horiz-adv-x="557" 
d="M510 4h-130v-91h-45v91h-61q-102 0 -171.5 75.5t-69.5 183.5q0 101 69.5 174.5t169.5 73.5h63v87h45v-87h130l-1 -111h-129v-289h130v-107zM337 400q-62 0 -106.5 -40.5t-44.5 -103.5q0 -65 40 -105t110 -40z" />
    <glyph glyph-name="sterling" unicode="&#xa3;" horiz-adv-x="720" 
d="M670 5h-615v120h60v199h-60v56h60v91q0 52 15 90t53 77t84 51.5t117 12.5h233v-123h-232q-29 0 -45.5 -4.5t-35.5 -21.5t-26.5 -39.5t-7.5 -52.5v-81h234v-56h-232v-196h398v-123z" />
    <glyph glyph-name="section" unicode="&#xa7;" horiz-adv-x="515" 
d="M484 261q0 -27 -19 -62q-26 -47 -70 -68q23 -20 37 -45q21 -37 21 -80q0 -88 -62 -139q-56 -46 -138 -46q-107 0 -159 73q-36 50 -36 109h122q4 -34 19 -53q21 -26 63 -26q28 0 45 16q22 21 22 53q0 22 -13 36.5t-41 29.5l-143 77q-53 28 -75 59q-26 37 -26 97
q0 43 25 77q21 29 62 52q-22 21 -33 43q-16 31 -16 70q0 72 48 121q53 54 139 54q78 0 127 -37q61 -46 61 -142h-118q0 75 -72 75q-31 0 -49 -16.5t-18 -37.5q0 -32 35 -52l150 -79q55 -29 79 -58q33 -40 33 -101zM369 239q0 20 -15 35t-39 27l-135 72q-14 -5 -24 -18
q-15 -20 -15 -38q0 -20 11 -35t31 -26l146 -81q19 11 29.5 27t10.5 37z" />
    <glyph glyph-name="bullet" unicode="&#x2022;" horiz-adv-x="341" 
d="M331 351q0 -68 -47 -115t-113 -47q-68 0 -114.5 46.5t-46.5 115.5q0 68 46 114t115 46q66 0 113 -46t47 -114z" />
    <glyph glyph-name="germandbls" unicode="&#xdf;" horiz-adv-x="586" 
d="M554 552q0 -73 -10 -101q-15 -43 -64 -64q34 -17 52.5 -44t18.5 -67v-153q0 -52 -44 -87.5t-117 -35.5q-53 0 -89 13q-55 20 -55 62v138h109v-61q3 -44 28 -44q23 0 30 18.5t7 53.5v21q0 54 -6 78q-11 45 -45 45l-119 -1v112l89 1q36 0 55.5 15t19.5 50q0 38 -19.5 64
t-52.5 26h-123l1 -591h-142v321h-42v114h42v265h315q68 0 114.5 -39.5t46.5 -108.5z" />
    <glyph glyph-name="registered" unicode="&#xae;" horiz-adv-x="719" 
d="M729 350q0 -169 -111 -272q-104 -97 -258 -97t-259 97q-112 104 -112 272t112 272q105 97 259 97t258 -97q111 -103 111 -272zM649 350q0 137 -86 226q-82 85 -203 85q-123 0 -206.5 -86.5t-83.5 -224.5q0 -137 84 -224.5t206 -87.5q120 0 204.5 87.5t84.5 224.5z
M547 182h-99l-90 138h-94v-138h-84v350h256q43 0 71.5 -33.5t28.5 -78.5q0 -38 -24.5 -63.5t-61.5 -30.5zM435 422q0 25 -18 38t-49 13h-105v-98h107q23 0 44 12t21 35z" />
    <glyph glyph-name="copyright" unicode="&#xa9;" horiz-adv-x="719" 
d="M730 351q0 -168 -112 -272q-105 -98 -258 -98q-154 0 -259 97q-112 104 -112 273q0 168 112 271q105 97 259 97t258 -96q112 -103 112 -272zM650 348q0 137 -86 226q-82 85 -204 85q-123 0 -206.5 -86.5t-83.5 -224.5q0 -139 83 -226t207 -87q121 0 205.5 87.5
t84.5 225.5zM474 175h-155q-12 0 -21 1.5t-25 6.5q-44 13 -69 59.5t-25 103.5t22 103.5t64 63.5q30 12 68 12h140v-67h-146q-35 0 -49.5 -34.5t-14.5 -82.5q0 -42 15.5 -71t49.5 -29l146 -1v-65z" />
    <glyph glyph-name="trademark" unicode="&#x2122;" horiz-adv-x="867" 
d="M838 350h-76v269l-99 -269h-90l-102 275v-275h-73v350h117l103 -277l98 277h122v-350zM365 642h-131v-292h-81v292h-128v58h340v-58z" />
    <glyph glyph-name="acute" unicode="&#xb4;" 
d="M382 698l-158 -146h-109l102 146h165z" />
    <glyph glyph-name="dieresis" unicode="&#xa8;" 
d="M351 562h-135v115h135v-115zM142 562h-135v115h135v-115z" />
    <glyph glyph-name="notequal" unicode="&#x2260;" horiz-adv-x="571" 
d="M562 141h-314l-94 -167l-52 29l76 138h-162v59h195l79 142h-274v58h307l94 171l52 -29l-78 -142h171v-58h-203l-80 -142h283v-59z" />
    <glyph glyph-name="AE" unicode="&#xc6;" horiz-adv-x="1206" 
d="M1169 0h-341q-70 0 -130 26v-26h-187l-1 160h-277l-121 -160h-173l542 700h219v-29q37 17 69.5 23t79.5 6h316v-124h-292q-39 0 -65.5 -10.5t-52.5 -37.5t-36 -52.5t-10 -63.5h460v-124h-458q0 -34 9 -59.5t32.5 -52.5t49 -41t60.5 -14h307v-121zM513 282v246l-187 -246
h187z" />
    <glyph glyph-name="Oslash" unicode="&#xd8;" horiz-adv-x="831" 
d="M801 351q0 -204 -113 -295q-94 -75 -268 -75q-83 0 -144.5 14.5t-110.5 46.5l-51 -54l-59 -1l76 81q-50 46 -75.5 118t-25.5 173q0 165 91 258q100 102 296 102q89 0 154 -15.5t109 -46.5l56 60h61l-83 -88q47 -46 67 -114.5t20 -163.5zM565 533q-27 30 -64.5 45.5
t-89.5 15.5q-106 0 -160 -76q-45 -64 -45 -163q0 -54 7 -95t28 -74zM623 355q0 84 -32 142l-322 -344q25 -22 64.5 -34.5t93.5 -12.5q113 0 160 77q36 59 36 172z" />
    <glyph glyph-name="infinity" unicode="&#x221e;" horiz-adv-x="742" 
d="M716 276q0 -58 -42 -103t-97 -45q-26 0 -58.5 10t-58.5 26t-47 35q-10 9 -42 41q-26 -26 -48 -46q-15 -13 -20 -17q-31 -22 -67 -35t-70 -13q-56 0 -97.5 44.5t-41.5 103.5t43 101t105 42q73 0 162 -80l26 -22l9 -8l10 8q56 50 77 64.5t50.5 26t60.5 11.5q60 0 103 -42
t43 -102zM662 270q0 39 -27.5 67.5t-64.5 28.5q-51 0 -127 -61l-27 -22l-9 -8l10 -11q57 -53 85 -69t66 -16q39 0 66.5 26.5t27.5 64.5zM337 275l-9 8q-55 46 -88.5 64t-64.5 18q-39 0 -67 -27t-28 -66q0 -38 28.5 -65.5t67.5 -27.5q62 0 141 76z" />
    <glyph glyph-name="plusminus" unicode="&#xb1;" horiz-adv-x="571" 
d="M561 367h-247v-246h-58v246h-246v57h246v247h58v-247h247v-57zM561 0h-551v58h551v-58z" />
    <glyph glyph-name="lessequal" unicode="&#x2264;" horiz-adv-x="571" 
d="M547 122l-518 239v64l518 240v-65l-448 -207l448 -207v-64zM547 0h-518v58h518v-58z" />
    <glyph glyph-name="greaterequal" unicode="&#x2265;" horiz-adv-x="571" 
d="M547 361l-517 -240v65l449 207l-449 206v66l517 -240v-64zM547 0h-517v58h517v-58z" />
    <glyph glyph-name="yen" unicode="&#xa5;" horiz-adv-x="703" 
d="M735 700l-221 -291h88v-116h-175v-72h175v-117h-175v-106h-165v106h-182v117h182v72h-182v116h96l-218 291h203l182 -279l185 279h207z" />
    <glyph glyph-name="mu" unicode="&#xb5;" horiz-adv-x="599" 
d="M591 106l-3 -14q-14 -54 -46 -82t-80 -28q-77 0 -93 102q-31 -47 -75 -74t-90 -27q-29 0 -47.5 8.5t-54.5 40.5l1 -29q0 -17 2 -22l26 -95q4 -17 4 -38q0 -35 -14 -57t-37 -22q-21 0 -36 20.5t-15 51.5q0 16 4 34t19 72q7 25 7 43v530h91v-361q0 -45 27 -75t69 -30
q28 0 59.5 18.5t49.5 46.5l9 13v388h91v-404q0 -34 16 -58.5t39 -24.5q21 0 32 13t19 48l3 12h23z" />
    <glyph glyph-name="partialdiff" unicode="&#x2202;" horiz-adv-x="514" 
d="M480 417q0 -199 -69 -318.5t-185 -119.5q-84 0 -141.5 58.5t-57.5 143.5q0 99 60 168t145 69q39 0 68.5 -12t78.5 -50l10 -8q11 72 11 111q0 86 -26 154.5t-65 91.5t-87 23q-26 0 -49 -8q-12 -4 -46 -19l-19 -8l-40 53l12 4l23 8l12 3l22 5q29 9 62 9q125 0 203 -99
t78 -259zM380 311q-30 37 -54 51t-55 14q-65 0 -109 -64t-44 -160q0 -67 24.5 -104.5t67.5 -37.5q92 0 138 144q14 43 21 76.5t11 80.5z" />
    <glyph glyph-name="summation" unicode="&#x3a3;" horiz-adv-x="742" 
d="M723 121l-3 -14l-17 -72l-6 -29l-5 -25l-7 -35l-5 -42l-2 -16l-75 11h-539l-49 -3l363 414l-361 471l83 -6h542l7 -167h-23l-3 13q-19 63 -47.5 84.5t-91.5 21.5h-287l281 -371l-304 -352h404q42 0 69 26.5t50 90.5h26z" />
    <glyph glyph-name="product" unicode="&#x220f;" horiz-adv-x="856" 
d="M835 -105h-319v25q53 0 76.5 17.5t23.5 57.5v728h-371v-733q0 -70 100 -70v-25h-319v25q53 0 76.5 17t23.5 53v676q0 41 -25.5 65.5t-68.5 24.5h-4v25h804v-25h-4q-94 0 -94 -101v-660q0 -40 23.5 -57.5t77.5 -17.5v-25z" />
    <glyph glyph-name="pi" unicode="&#x3c0;" horiz-adv-x="571" 
d="M551 158q0 -75 -35 -124.5t-88 -49.5q-47 0 -74 49t-27 134l3 77l16 160l2 13h-116l-1 -16q-12 -138 -27 -240t-28 -137q-7 -19 -24.5 -31.5t-36.5 -12.5q-25 0 -41 17t-16 43q0 13 8 21l50 67q9 9 14 21.5t7 26.5l30 241h-23q-47 0 -66.5 -11.5t-48.5 -55.5h-19
q17 52 27.5 73t32.5 46q14 15 37.5 26t42.5 11h393v-89h-130l-1 -13q-4 -44 -8 -95t-4 -112v-8q0 -109 65 -109q28 0 43.5 19t19.5 59h23z" />
    <glyph glyph-name="integral" unicode="&#x222b;" horiz-adv-x="285" 
d="M303 894q0 -21 -16 -34t-42 -13q-6 0 -14 4l-22 17q-5 2 -7 3t-3 2q-21 0 -21 -34l1 -22l15 -187q3 -36 4 -72.5t1 -160.5q0 -158 -5 -223t-22 -159q-11 -52 -31 -88.5t-80 -36.5q-24 0 -41.5 19.5t-17.5 45.5q0 21 23 34q14 9 25 9q7 0 17.5 -7t30.5 -25q34 3 34 93
l-8 261l1 285q0 192 27.5 269t82.5 77q30 0 49 -16t19 -41z" />
    <glyph glyph-name="ordfeminine" unicode="&#xaa;" horiz-adv-x="364" 
d="M334 362h-225q-38 0 -64.5 27.5t-26.5 70.5q0 44 24 73t61 29h145v18q0 15 -9.5 27.5t-19 15.5t-25.5 3h-155v74h133h23q38 0 62 -5.5t43.5 -27t26.5 -49t7 -63.5v-193zM341 335l-1 -72h-320v72h321zM248 431v67h-106q-15 0 -25.5 -9.5t-10.5 -25.5q0 -14 10 -23t24 -9
h108z" />
    <glyph glyph-name="ordmasculine" unicode="&#xba;" horiz-adv-x="395" 
d="M377 533q0 -89 -51 -135q-47 -43 -129 -43t-127 39q-52 45 -52 140q0 80 56 125q51 41 125 41q81 0 129.5 -43.5t48.5 -123.5zM371 335l-1 -72h-350v72h351zM284 533q0 42 -24 69t-64 27q-38 0 -62 -28t-24 -71q0 -50 25 -79t64 -29q44 0 64.5 29.5t20.5 81.5z" />
    <glyph glyph-name="Omega" unicode="&#x3a9;" horiz-adv-x="799" 
d="M765 0h-306l16 158q29 12 46 22t32 26q69 69 69 211q0 127 -58 196t-165 69q-103 0 -162 -70t-59 -194q0 -66 19 -123t53 -91q16 -16 30.5 -25t46.5 -21l16 -158h-308v168h18q8 -30 14.5 -41.5t16.5 -15t35.5 -5.5t72.5 -2l92 2l-2 28q-49 15 -78 29.5t-53 35.5
q-45 41 -70 97t-25 118q0 132 97 217t248 85q150 0 247 -85t97 -216q0 -75 -36 -142t-95 -100q-25 -14 -40 -20.5t-54 -18.5l-2 -28q15 0 46 -1t48 -1q87 0 105 7q9 6 16 15.5t13 29.5l3 12h16v-168z" />
    <glyph glyph-name="ae" unicode="&#xe6;" horiz-adv-x="912" 
d="M875 -3l-319 2h-374q-63 0 -107.5 42.5t-44.5 107.5q0 68 40.5 112.5t101.5 44.5h242v28q0 13 -4.5 22.5t-14.5 22.5q-14 16 -29 20.5t-42 4.5h-259v114h222h43q73 0 109 -12.5t62 -37.5l6 -6q64 56 135 56h232v-107h-170q-32 0 -54.5 -5.5t-41.5 -21.5q-35 -30 -35 -81
h300v-108h-299q0 -24 5.5 -40.5t22.5 -33t40.5 -22t57.5 -5.5h175v-97zM413 105v102h-176q-25 0 -42.5 -14.5t-17.5 -38.5q0 -21 17 -35t39 -14h180z" />
    <glyph glyph-name="oslash" unicode="&#xf8;" horiz-adv-x="659" 
d="M629 261q0 -137 -80 -209q-75 -68 -209 -68q-55 0 -102 10.5t-88 33.5l-66 -76l-53 -1l86 100q-41 34 -64 87t-23 125q0 122 94 192q84 63 207 63q92 0 161 -32l79 92h55l-98 -113q48 -31 74.5 -83.5t26.5 -120.5zM408 388q-35 22 -81 22q-62 0 -102.5 -43.5
t-40.5 -109.5q0 -58 25 -100zM474 262q0 60 -35 100l-205 -237q41 -38 97 -38q74 0 110 49q33 45 33 126z" />
    <glyph glyph-name="questiondown" unicode="&#xbf;" horiz-adv-x="767" 
d="M694 403h-161v115h161v-115zM715 -182h-487q-85 0 -143.5 62.5t-58.5 148.5q0 92 70 145q65 49 168 49h159q28 0 47 7.5t37 27.5q13 16 18.5 32.5t5.5 39.5v18h165v-38q0 -47 -11.5 -81t-41.5 -66q-35 -37 -83 -49q-33 -8 -103 -8h-156q-35 0 -58 -22t-23 -57
q0 -39 28 -67t67 -28h400v-114z" />
    <glyph glyph-name="exclamdown" unicode="&#xa1;" horiz-adv-x="250" 
d="M196 393h-143v125h143v-125zM194 -187h-141v516h141v-516z" />
    <glyph glyph-name="logicalnot" unicode="&#xac;" horiz-adv-x="742" 
d="M707 0h-58v242h-633v58h691v-300z" />
    <glyph glyph-name="radical" unicode="&#x221a;" horiz-adv-x="571" 
d="M536 947l-155 -989l-254 524l-100 -49l-18 35l154 75l204 -417l131 827z" />
    <glyph glyph-name="florin" unicode="&#x192;" horiz-adv-x="520" 
d="M515 644q0 -19 -15 -33t-37 -14q-16 0 -26 16q-12 15 -12 22l1 5l11 25l1 6q0 15 -21 15q-26 0 -48 -29t-28 -73l-20 -137l-2 -13h133l-10 -36h-127l-32 -258l-11 -48l-26 -116q-15 -66 -60 -126q-39 -50 -99 -50q-38 0 -62 20t-24 51q0 22 14 37t36 15q18 0 29.5 -10.5
t11.5 -26.5q0 -6 -8 -30l-4 -11l-1 -7v-5l6 -5h10q31 0 49 27.5t31 92.5l12 61l4 36l36 353h-122l14 36h116q16 130 68.5 204.5t130.5 74.5q33 0 57 -20t24 -49z" />
    <glyph glyph-name="approxequal" unicode="&#x2248;" horiz-adv-x="571" 
d="M548 385q-52 -84 -149 -84l-18 3l-179 50q-14 3 -19 4q-6 1 -19 1q-33 0 -56 -14t-48 -49l-45 30q36 44 71.5 63t81.5 19l33 -3l174 -48l25 -4q62 0 110 57zM548 228q-24 -38 -63.5 -61t-83.5 -23q-12 0 -21 3l-178 50q-23 5 -40 5q-56 0 -102 -62l-46 28q64 83 154 83
q21 0 35 -5l172 -46l24 -4q62 0 110 58z" />
    <glyph glyph-name="Delta" unicode="&#x2206;" horiz-adv-x="636" 
d="M632 0h-626l333 717zM502 52l-200 484l-226 -484h426z" />
    <glyph glyph-name="ellipsis" unicode="&#x2026;" horiz-adv-x="750" 
d="M694 0h-141v127h141v-127zM444 0h-141v127h141v-127zM194 0h-141v127h141v-127z" />
    <glyph glyph-name="Agrave" unicode="&#xc0;" horiz-adv-x="701" 
d="M731 0h-175l-59 160h-289l-63 -160h-173l287 700h171zM443 282l-95 246l-92 -246h187zM466 723h-108l-157 146h165z" />
    <glyph glyph-name="Atilde" unicode="&#xc3;" horiz-adv-x="701" 
d="M731 0h-175l-59 160h-289l-63 -160h-173l287 700h171zM443 282l-95 246l-92 -246h187zM547 866q-10 -69 -41 -106t-76 -37q-31 0 -73 14.5l-84 30.5q-18 0 -32 -13t-18 -34h-70l10 42q9 31 22 51q17 24 40 38t58 14q15 0 70.5 -22.5t73.5 -22.5q23 0 37 15q9 10 14 30h69
z" />
    <glyph glyph-name="Otilde" unicode="&#xd5;" horiz-adv-x="831" 
d="M801 351q0 -204 -113 -292q-92 -71 -268 -71q-195 0 -288 82q-102 90 -102 289q0 163 91 254q99 99 296 99q217 0 306 -95q78 -84 78 -266zM623 355q0 103 -49 164q-55 68 -163 68q-106 0 -160 -73q-45 -61 -45 -159q0 -113 36 -167q50 -75 185 -75q114 0 160 73
q36 57 36 169zM604 866q-10 -69 -41 -106t-76 -37q-31 0 -73 14.5l-84 30.5q-18 0 -32 -13t-18 -34h-70l10 42q9 31 22 51q17 24 40 38t58 14q15 0 70.5 -22.5t73.5 -22.5q23 0 37 15q9 10 14 30h69z" />
    <glyph glyph-name="OE" unicode="&#x152;" horiz-adv-x="1310" 
d="M1280 0h-341q-79 0 -152 36q-39 20 -69 51q-50 -54 -131 -78q-70 -21 -167 -21q-195 0 -288 82q-102 90 -102 289q0 163 91 254q99 99 296 99q113 0 188.5 -24.5t119.5 -73.5q29 29 62 46q43 22 82.5 31t90.5 9h316v-124h-292q-39 0 -65.5 -10.5t-52.5 -37.5t-36 -52.5
t-10 -63.5h460v-124h-458q0 -34 9 -59.5t32.5 -52.5t49 -41t60.5 -14h307v-121zM623 355q0 103 -49 164q-55 68 -163 68q-106 0 -160 -73q-45 -61 -45 -159q0 -113 36 -167q50 -75 185 -75q114 0 160 73q36 57 36 169z" />
    <glyph glyph-name="oe" unicode="&#x153;" horiz-adv-x="975" 
d="M939 -3h-244q-39 0 -74.5 15.5t-65.5 44.5q-37 -37 -91.5 -55t-123.5 -18q-137 0 -217 62q-93 72 -93 217q0 122 94 192q84 63 207 63q143 0 222 -73q68 73 153 73h232v-107h-170q-32 0 -54.5 -5.5t-41.5 -21.5q-35 -30 -35 -81h300v-108h-299q0 -24 5.5 -40.5t22.5 -33
t40.5 -22t57.5 -5.5h175v-97zM474 262q0 63 -39.5 105.5t-107.5 42.5q-62 0 -102.5 -43.5t-40.5 -109.5q0 -76 41.5 -123t105.5 -47q74 0 110 49q33 45 33 126z" />
    <glyph glyph-name="endash" unicode="&#x2013;" horiz-adv-x="500" 
d="M500 263h-500v137h500v-137z" />
    <glyph glyph-name="emdash" unicode="&#x2014;" horiz-adv-x="1000" 
d="M1000 263h-1000v137h1000v-137z" />
    <glyph glyph-name="quotedblleft" unicode="&#x201c;" horiz-adv-x="505" 
d="M234 584h-105l-99 118h159zM473 580h-104l-103 122h159z" />
    <glyph glyph-name="quotedblright" unicode="&#x201d;" horiz-adv-x="533" 
d="M484 702l-99 -118h-104l43 118h160zM249 702l-103 -122h-105l49 122h159z" />
    <glyph glyph-name="quoteleft" unicode="&#x2018;" horiz-adv-x="250" 
d="M223 582h-105l-99 118h159z" />
    <glyph glyph-name="quoteright" unicode="&#x2019;" horiz-adv-x="250" 
d="M230 698l-99 -119h-104l44 119h159z" />
    <glyph glyph-name="divide" unicode="&#xf7;" horiz-adv-x="571" 
d="M338 416q0 -24 -17 -41t-42 -17t-42 17t-17 41q0 22 15 39t37 19h6q26 0 43 -16t17 -42zM557 244h-547v59h547v-59zM338 132q0 -24 -17.5 -40.5t-41.5 -16.5q-25 0 -42 16t-17 42q0 23 15 39t41 18l3 1q24 0 41.5 -17.5t17.5 -41.5z" />
    <glyph glyph-name="lozenge" unicode="&#x25ca;" horiz-adv-x="514" 
d="M485 392l-201 -392h-64l-166 323l-35 69l200 383h65l160 -305zM421 392l-169 325l-162 -308l-8 -17l170 -334l145 286z" />
    <glyph glyph-name="ydieresis" unicode="&#xff;" horiz-adv-x="599" 
d="M546 518l-1 -540q0 -34 -14 -61.5t-37 -48.5q-35 -30 -72 -41t-89 -11h-272v108h283q19 0 36 13q23 18 23 42v20h-160q-46 0 -78 10.5t-62 40.5q-53 52 -53 129v339h146l-1 -332q0 -20 2.5 -30t14 -22t26.5 -16.5t37 -4.5h127v405h144zM468 562h-135v115h135v-115z
M259 562h-135v115h135v-115z" />
    <glyph glyph-name="Ydieresis" unicode="&#x178;" horiz-adv-x="703" 
d="M735 700l-308 -405v-297h-165v297l-304 405h203l182 -279l185 279h207zM513 736h-135v115h135v-115zM304 736h-135v115h135v-115z" />
    <glyph glyph-name="fraction" unicode="&#x2215;" horiz-adv-x="585" 
d="M536 716l-422 -728l-59 -1l423 729h58z" />
    <glyph glyph-name="currency" unicode="&#xa4;" horiz-adv-x="570" 
d="M547 474l-57 -56q25 -28 38.5 -69t13.5 -84q0 -45 -12.5 -83t-39.5 -72l56 -58l-46 -45l-58 59q-62 -57 -152 -57q-43 0 -82.5 14.5t-69.5 42.5l-57 -59l-47 45l56 58q-51 63 -51 155q0 45 12.5 84.5t38.5 68.5l-56 56l49 49l59 -58q29 25 68 39t80 14q89 0 148 -53
l59 58zM467 265q0 74 -52 128t-125 54q-72 0 -124 -54t-52 -128t51.5 -128.5t124.5 -54.5q74 0 125.5 53.5t51.5 129.5z" />
    <glyph glyph-name="periodcentered" unicode="&#xb7;" horiz-adv-x="250" 
d="M194 310h-141v127h141v-127z" />
    <glyph glyph-name="periodcentered" unicode="&#x2219;" horiz-adv-x="250" 
d="M194 310h-141v127h141v-127z" />
    <glyph glyph-name="Acircumflex" unicode="&#xc2;" horiz-adv-x="701" 
d="M731 0h-175l-59 160h-289l-63 -160h-173l287 700h171zM443 282l-95 246l-92 -246h187zM536 726h-121l-68 82l-68 -82h-121l122 146h134z" />
    <glyph glyph-name="Ecircumflex" unicode="&#xca;" horiz-adv-x="721" 
d="M686 0h-341q-79 0 -152 36q-79 39 -120.5 124t-41.5 187q0 101 40 183q44 89 122 130q43 22 82.5 31t90.5 9h316v-124h-292q-39 0 -65.5 -10.5t-52.5 -37.5t-36 -52.5t-10 -63.5h460v-124h-458q0 -34 9 -59.5t32.5 -52.5t49 -41t60.5 -14h307v-121zM602 726h-121l-68 82
l-68 -82h-121l122 146h134z" />
    <glyph glyph-name="Aacute" unicode="&#xc1;" horiz-adv-x="701" 
d="M731 0h-175l-59 160h-289l-63 -160h-173l287 700h171zM443 282l-95 246l-92 -246h187zM487 875l-158 -146h-109l102 146h165z" />
    <glyph glyph-name="Edieresis" unicode="&#xcb;" horiz-adv-x="721" 
d="M686 0h-341q-79 0 -152 36q-79 39 -120.5 124t-41.5 187q0 101 40 183q44 89 122 130q43 22 82.5 31t90.5 9h316v-124h-292q-39 0 -65.5 -10.5t-52.5 -37.5t-36 -52.5t-10 -63.5h460v-124h-458q0 -34 9 -59.5t32.5 -52.5t49 -41t60.5 -14h307v-121zM564 736h-135v115h135
v-115zM355 736h-135v115h135v-115z" />
    <glyph glyph-name="Egrave" unicode="&#xc8;" horiz-adv-x="721" 
d="M686 0h-341q-79 0 -152 36q-79 39 -120.5 124t-41.5 187q0 101 40 183q44 89 122 130q43 22 82.5 31t90.5 9h316v-124h-292q-39 0 -65.5 -10.5t-52.5 -37.5t-36 -52.5t-10 -63.5h460v-124h-458q0 -34 9 -59.5t32.5 -52.5t49 -41t60.5 -14h307v-121zM523 723h-108
l-157 146h165z" />
    <glyph glyph-name="Iacute" unicode="&#xcd;" horiz-adv-x="288" 
d="M237 0h-187v700h187v-700zM280 875l-158 -146h-109l102 146h165z" />
    <glyph glyph-name="Icircumflex" unicode="&#xce;" horiz-adv-x="288" 
d="M237 0h-187v700h187v-700zM329 726h-121l-68 82l-68 -82h-121l122 146h134z" />
    <glyph glyph-name="Idieresis" unicode="&#xcf;" horiz-adv-x="288" 
d="M237 0h-187v700h187v-700zM318 736h-135v115h135v-115zM109 736h-135v115h135v-115z" />
    <glyph glyph-name="Igrave" unicode="&#xcc;" horiz-adv-x="288" 
d="M237 0h-187v700h187v-700zM277 723h-108l-157 146h165z" />
    <glyph glyph-name="Oacute" unicode="&#xd3;" horiz-adv-x="831" 
d="M801 351q0 -204 -113 -292q-92 -71 -268 -71q-195 0 -288 82q-102 90 -102 289q0 163 91 254q99 99 296 99q217 0 306 -95q78 -84 78 -266zM623 355q0 103 -49 164q-55 68 -163 68q-106 0 -160 -73q-45 -61 -45 -159q0 -113 36 -167q50 -75 185 -75q114 0 160 73
q36 57 36 169zM535 875l-158 -146h-109l102 146h165z" />
    <glyph glyph-name="Ocircumflex" unicode="&#xd4;" horiz-adv-x="831" 
d="M801 351q0 -204 -113 -292q-92 -71 -268 -71q-195 0 -288 82q-102 90 -102 289q0 163 91 254q99 99 296 99q217 0 306 -95q78 -84 78 -266zM623 355q0 103 -49 164q-55 68 -163 68q-106 0 -160 -73q-45 -61 -45 -159q0 -113 36 -167q50 -75 185 -75q114 0 160 73
q36 57 36 169zM605 726h-121l-68 82l-68 -82h-121l122 146h134z" />
    <glyph glyph-name="apple" unicode="&#xf000;" horiz-adv-x="822" 
d="M555 708q0 -67 -46 -118t-108 -51q0 76 41 123t113 57v-11zM724 176q-39 -97 -85.5 -150.5t-90.5 -53.5q-21 0 -42 9l-42 18q-10 4 -33 4q-37 0 -55 -5l-44 -19q-24 -8 -40 -8q-58 0 -115 85q-42 62 -65 130t-23 132q0 102 54.5 165.5t140.5 63.5q35 0 81 -19
q33 -12 49 -12q18 0 45 10q41 15 57 19t38 4q96 0 150 -74q-45 -35 -64 -68t-19 -77q0 -52 27 -93t76 -61z" />
    <glyph glyph-name="Ograve" unicode="&#xd2;" horiz-adv-x="831" 
d="M801 351q0 -204 -113 -292q-92 -71 -268 -71q-195 0 -288 82q-102 90 -102 289q0 163 91 254q99 99 296 99q217 0 306 -95q78 -84 78 -266zM623 355q0 103 -49 164q-55 68 -163 68q-106 0 -160 -73q-45 -61 -45 -159q0 -113 36 -167q50 -75 185 -75q114 0 160 73
q36 57 36 169zM535 723h-108l-157 146h165z" />
    <glyph glyph-name="Uacute" unicode="&#xda;" horiz-adv-x="801" 
d="M749 237q0 -138 -110 -195q-82 -42 -235 -42q-149 0 -239 49q-115 62 -115 195v456h177v-434q0 -82 59 -119q43 -27 107 -27q109 0 150 43q35 37 35 109v428h171v-463zM535 875l-158 -146h-109l102 146h165z" />
    <glyph glyph-name="Ucircumflex" unicode="&#xdb;" horiz-adv-x="801" 
d="M749 237q0 -138 -110 -195q-82 -42 -235 -42q-149 0 -239 49q-115 62 -115 195v456h177v-434q0 -82 59 -119q43 -27 107 -27q109 0 150 43q35 37 35 109v428h171v-463zM590 726h-121l-68 82l-68 -82h-121l122 146h134z" />
    <glyph glyph-name="Ugrave" unicode="&#xd9;" horiz-adv-x="801" 
d="M749 237q0 -138 -110 -195q-82 -42 -235 -42q-149 0 -239 49q-115 62 -115 195v456h177v-434q0 -82 59 -119q43 -27 107 -27q109 0 150 43q35 37 35 109v428h171v-463zM532 723h-108l-157 146h165z" />
    <glyph glyph-name="dotlessi" unicode="&#x131;" horiz-adv-x="240" 
d="M190 0h-140v518h140v-518z" />
    <glyph glyph-name="circumflex" unicode="&#x2c6;" 
d="M367 552h-121l-68 82l-68 -82h-121l122 146h134z" />
    <glyph glyph-name="tilde" unicode="&#x2dc;" 
d="M375 700q-10 -69 -41 -106t-76 -37q-31 0 -73 14.5l-84 30.5q-18 0 -32 -13t-18 -34h-70l10 42q9 31 22 51q17 24 40 38t58 14q15 0 70.5 -22.5t73.5 -22.5q23 0 37 15q9 10 14 30h69z" />
    <glyph glyph-name="macron" unicode="&#xaf;" 
d="M364 552h-371v74h371v-74z" />
    <glyph glyph-name="breve" unicode="&#x2d8;" 
d="M360 698q-6 -55 -37 -90q-50 -56 -155 -56q-94 0 -139 58q-31 40 -31 88h70q7 -29 22 -44q27 -26 85 -26q48 0 71 10q36 16 43 60h71z" />
    <glyph glyph-name="dotaccent" unicode="&#x2d9;" 
d="M246 562h-135v115h135v-115z" />
    <glyph glyph-name="ring" unicode="&#x2da;" 
d="M295 620q0 -46 -35.5 -75t-80.5 -29q-44 0 -78 28q-37 31 -37 76t36 75t79 30q44 0 80 -29.5t36 -75.5zM235 620q0 21 -16.5 36.5t-39.5 15.5q-24 0 -40 -15t-16 -37t16.5 -37.5t39.5 -15.5q24 0 40 15t16 38z" />
    <glyph glyph-name="cedilla" unicode="&#xb8;" 
d="M263 -130q0 -43 -37 -71t-96 -28q-30 0 -54.5 5t-68.5 20l23 48q26 -7 46.5 -11.5t35.5 -4.5q19 0 35 10.5t16 28.5t-12 27t-30 9t-43 -7l-22 20l58 84h64l-41 -56l16 4q5 1 16 1q33 0 58 -15q36 -21 36 -64z" />
    <glyph glyph-name="hungarumlaut" unicode="&#x2ba;" 
d="M521 698l-157 -146h-109l101 146h165zM276 698l-158 -146h-108l100 146h166z" />
    <glyph glyph-name="ogonek" unicode="&#x2db;" 
d="M326 -205q-37 -14 -63 -19t-54 -5q-58 0 -95.5 27t-37.5 66q0 47 31 82t85 54h91v-4q-49 -24 -77.5 -60t-28.5 -61q0 -23 15.5 -35.5t34.5 -12.5q15 0 36.5 5t43.5 12z" />
    <glyph glyph-name="caron" unicode="&#x2c7;" 
d="M367 698l-122 -146h-134l-122 146h121l68 -82l68 82h121z" />
    <glyph glyph-name="Scaron" unicode="&#x160;" horiz-adv-x="816" 
d="M787 217q0 -92 -61 -155t-155 -63l-495 1v126h408q41 0 69 19q32 22 32 60q0 89 -126 89h-206q-89 0 -156 55t-67 140q0 94 65.5 152.5t172.5 58.5h473v-120h-417q-28 0 -56.5 -23.5t-28.5 -55.5q0 -36 27.5 -60.5t66.5 -24.5h227q106 0 166.5 -54.5t60.5 -144.5z
M584 726h-121l-68 82l-68 -82h-121l122 146h134z" />
    <glyph glyph-name="scaron" unicode="&#x161;" horiz-adv-x="562" 
d="M532 158q0 -66 -42.5 -113t-107.5 -47h-343v94h282q30 0 50.5 15t20.5 43q0 65 -88 65h-144q-46 0 -89 44t-43 95q0 72 32 116q37 50 109 50h330v-98h-294q-17 0 -29.5 -16.5t-12.5 -37.5q0 -23 16.5 -39.5t39.5 -16.5h155q73 0 115.5 -43.5t42.5 -110.5zM449 552h-121
l-68 82l-68 -82h-121l122 146h134z" />
  </font>
</defs>
</svg>
